<?xml version="1.0" encoding="UTF-8" standalone="no"?>
<!-- Created with Inkscape (http://www.inkscape.org/) -->

<svg
   xmlns:dc="http://purl.org/dc/elements/1.1/"
   xmlns:cc="http://creativecommons.org/ns#"
   xmlns:rdf="http://www.w3.org/1999/02/22-rdf-syntax-ns#"
   xmlns:svg="http://www.w3.org/2000/svg"
   xmlns="http://www.w3.org/2000/svg"
   xmlns:sodipodi="http://sodipodi.sourceforge.net/DTD/sodipodi-0.dtd"
   xmlns:inkscape="http://www.inkscape.org/namespaces/inkscape"
   width="300"
   height="50"
   id="svg3086"
   version="1.1"
   inkscape:version="0.48.4 r9939"
   sodipodi:docname="banner.png">
  <defs
     id="defs3088" />
  <sodipodi:namedview
     id="base"
     pagecolor="#ffffff"
     bordercolor="#666666"
     borderopacity="1.0"
     inkscape:pageopacity="0.0"
     inkscape:pageshadow="2"
     inkscape:zoom="2"
     inkscape:cx="174.25"
     inkscape:cy="80"
     inkscape:document-units="px"
     inkscape:current-layer="layer1"
     showgrid="false"
     inkscape:window-width="1440"
     inkscape:window-height="838"
     inkscape:window-x="-8"
     inkscape:window-y="-8"
     inkscape:window-maximized="1" />
  <metadata
     id="metadata3091">
    <rdf:RDF>
      <cc:Work
         rdf:about="">
        <dc:format>image/svg+xml</dc:format>
        <dc:type
           rdf:resource="http://purl.org/dc/dcmitype/StillImage" />
        <dc:title></dc:title>
      </cc:Work>
    </rdf:RDF>
  </metadata>
  <g
     inkscape:label="Layer 1"
     inkscape:groupmode="layer"
     id="layer1"
     transform="translate(0,-1002.3622)">
    <g
       transform="matrix(0.15963954,0,0,0.15963954,-5.0869826,1046.01)"
       style="display:inline"
       id="g3069">
      <path
         inkscape:connector-curvature="0"
         id="path3067"
         d="m 97.1255,-97 -36.0625,0 c 2.14266,43.38338 11.4216,75.46169 27.84375,96.1875 15.75515,19.79167 37.427,29.6875 65.03125,29.6875 20.96341,0 38.29412,-5.61198 52.03125,-16.875 13.7368,-11.263 24.06752,-27.23694 30.96875,-47.875 5.59122,-16.72133 8.81378,-37.89862 9.875,-63.125 l -35.96875,0 c -1.29418,36.81739 -6.68308,62.0337 -16.1875,75.53125 -11.00274,15.62503 -24.57304,23.43752 -40.71875,23.4375 -16.14593,2e-5 -29.71623,-7.78382 -40.71875,-23.34375 C 103.88976,-36.56865 98.54334,-61.19836 97.1255,-97 z"
         style="font-size:400px;font-style:normal;font-variant:normal;font-weight:normal;font-stretch:normal;text-align:start;line-height:125%;letter-spacing:0px;word-spacing:0px;writing-mode:lr-tb;text-anchor:start;fill:#008000;fill-opacity:1;stroke:none;font-family:Sans;-inkscape-font-specification:Sans" />
      <path
         inkscape:connector-curvature="0"
         id="text3011"
         d="m 153.96875,-262.5 c -20.83342,2.9e-4 -38.13809,5.61487 -51.875,16.8125 -13.73702,11.19818 -24.06514,27.11222 -31.03125,47.75 -5.68426,16.84039 -8.94921,38.30252 -10,63.9375 l 36,0 c 1.38394,-37.42401 7.33015,-63.72625 17.84375,-78.875 9.63534,-13.67162 22.51032,-20.53099 38.65625,-20.53125 16.40612,2.6e-4 30.12226,7.75546 41.125,23.25 9.55202,13.45235 14.95941,38.85593 16.21875,76.15625 l 36.0625,0 c -0.73791,-20.13388 -2.74319,-36.82738 -6.09375,-49.875 -4.29707,-16.73154 -10.22935,-30.93986 -17.78125,-42.59375 -7.55225,-11.65338 -17.13037,-20.56483 -28.71875,-26.75 -11.58868,-6.18461 -25.04179,-9.28096 -40.40625,-9.28125 z"
         style="font-size:400px;font-style:normal;font-variant:normal;font-weight:normal;font-stretch:normal;text-align:start;line-height:125%;letter-spacing:0px;word-spacing:0px;writing-mode:lr-tb;text-anchor:start;fill:#008000;fill-opacity:1;stroke:none;font-family:Sans;-inkscape-font-specification:Sans" />
    </g>
    <text
       xml:space="preserve"
       style="font-size:32px;font-style:normal;font-variant:normal;font-weight:bold;font-stretch:normal;text-align:start;line-height:125%;letter-spacing:0px;word-spacing:0px;writing-mode:lr-tb;text-anchor:start;fill:#000000;fill-opacity:1;stroke:none;font-family:Sans;-inkscape-font-specification:Sans Bold"
       x="42"
       y="1038.3622"
       id="text3105"
       sodipodi:linespacing="125%"><tspan
         sodipodi:role="line"
         id="tspan3107"
         x="42"
         y="1038.3622">Antivirus Project</tspan></text>
  </g>
</svg>
